<svg xmlns="http://www.w3.org/2000/svg" xmlns:xlink="http://www.w3.org/1999/xlink" width="1080" zoomAndPan="magnify" viewBox="0 0 810 809.999993" height="1080" preserveAspectRatio="xMidYMid meet" version="1.0"><defs><clipPath id="dd063c703e"><path d="M 238.21875 240.179688 L 606.46875 240.179688 L 606.46875 570 L 238.21875 570 Z M 238.21875 240.179688 " clip-rule="nonzero"/></clipPath></defs><g clip-path="url(#dd063c703e)"><path fill="#7ed957" d="M 567.65625 405.070312 C 567.65625 496.039062 493.910156 569.78125 402.945312 569.78125 C 311.976562 569.78125 238.21875 495.941406 238.21875 405.070312 C 238.21875 314.199219 311.957031 240.367188 402.921875 240.367188 C 408.394531 240.363281 413.851562 240.628906 419.292969 241.164062 C 424.738281 241.703125 430.140625 242.511719 435.503906 243.589844 C 440.867188 244.667969 446.164062 246.011719 451.390625 247.621094 C 456.621094 249.226562 461.757812 251.089844 466.796875 253.210938 C 471.839844 255.332031 476.765625 257.699219 481.570312 260.3125 C 486.375 262.925781 491.039062 265.773438 495.5625 268.851562 C 500.082031 271.929688 504.441406 275.226562 508.632812 278.742188 C 512.824219 282.257812 516.828125 285.972656 520.648438 289.886719 L 496.078125 314.457031 C 493.085938 311.375 489.945312 308.445312 486.660156 305.671875 C 483.375 302.898438 479.960938 300.292969 476.417969 297.859375 C 472.871094 295.425781 469.214844 293.175781 465.445312 291.105469 C 461.679688 289.039062 457.816406 287.160156 453.863281 285.476562 C 449.90625 283.792969 445.875 282.308594 441.773438 281.023438 C 437.671875 279.742188 433.511719 278.664062 429.304688 277.792969 C 425.09375 276.925781 420.851562 276.265625 416.574219 275.820312 C 412.296875 275.371094 408.011719 275.136719 403.710938 275.117188 C 332.328125 274.691406 273.507812 332.671875 272.96875 404.09375 C 272.953125 406.394531 273 408.691406 273.105469 410.992188 C 273.214844 413.289062 273.382812 415.582031 273.609375 417.875 C 273.839844 420.164062 274.128906 422.445312 274.476562 424.71875 C 274.828125 426.992188 275.238281 429.257812 275.707031 431.507812 C 276.175781 433.761719 276.707031 436 277.296875 438.222656 C 277.886719 440.449219 278.53125 442.65625 279.238281 444.84375 C 279.945312 447.035156 280.710938 449.203125 281.53125 451.355469 C 282.351562 453.503906 283.230469 455.628906 284.164062 457.730469 C 285.097656 459.835938 286.089844 461.910156 287.132812 463.960938 C 288.179688 466.011719 289.277344 468.03125 290.429688 470.023438 C 291.582031 472.015625 292.785156 473.976562 294.039062 475.902344 C 295.296875 477.832031 296.601562 479.722656 297.960938 481.582031 C 299.316406 483.441406 300.722656 485.261719 302.175781 487.046875 C 303.628906 488.832031 305.128906 490.574219 306.675781 492.277344 C 308.21875 493.984375 309.808594 495.644531 311.445312 497.265625 C 313.078125 498.882812 314.753906 500.460938 316.472656 501.988281 C 318.191406 503.519531 319.949219 505.003906 321.746094 506.441406 C 323.542969 507.878906 325.375 509.269531 327.246094 510.609375 C 329.117188 511.949219 331.023438 513.238281 332.960938 514.476562 C 334.898438 515.714844 336.871094 516.902344 338.871094 518.035156 C 340.875 519.167969 342.90625 520.25 344.964844 521.277344 C 347.023438 522.300781 349.109375 523.273438 351.21875 524.1875 C 353.332031 525.105469 355.464844 525.960938 357.621094 526.765625 C 359.777344 527.566406 361.953125 528.3125 364.152344 528.996094 C 366.347656 529.683594 368.558594 530.3125 370.789062 530.878906 C 373.019531 531.449219 375.261719 531.960938 377.519531 532.410156 C 379.773438 532.859375 382.042969 533.25 384.320312 533.578125 C 386.597656 533.90625 388.878906 534.175781 391.171875 534.382812 C 393.464844 534.59375 395.757812 534.738281 398.058594 534.824219 C 400.359375 534.914062 402.65625 534.9375 404.957031 534.902344 C 407.257812 534.867188 409.558594 534.769531 411.851562 534.609375 C 414.148438 534.453125 416.4375 534.234375 418.722656 533.953125 C 421.007812 533.675781 423.28125 533.335938 425.546875 532.933594 C 427.8125 532.53125 430.066406 532.074219 432.308594 531.550781 C 434.550781 531.03125 436.773438 530.453125 438.984375 529.816406 C 441.195312 529.175781 443.386719 528.480469 445.5625 527.726562 C 447.734375 526.96875 449.886719 526.15625 452.019531 525.289062 C 454.148438 524.417969 456.253906 523.496094 458.335938 522.511719 C 460.417969 521.53125 462.472656 520.496094 464.496094 519.40625 C 466.523438 518.316406 468.519531 517.171875 470.484375 515.976562 C 472.453125 514.78125 474.382812 513.535156 476.28125 512.234375 C 478.183594 510.9375 480.046875 509.589844 481.875 508.191406 C 483.703125 506.792969 485.492188 505.347656 487.242188 503.855469 C 488.992188 502.363281 490.703125 500.824219 492.371094 499.238281 C 494.042969 497.65625 495.667969 496.03125 497.25 494.359375 C 498.832031 492.691406 500.371094 490.980469 501.863281 489.226562 C 503.355469 487.476562 504.800781 485.683594 506.195312 483.855469 C 507.59375 482.027344 508.941406 480.164062 510.238281 478.265625 C 511.535156 476.363281 512.785156 474.429688 513.980469 472.464844 C 515.175781 470.5 516.316406 468.503906 517.40625 466.476562 C 518.496094 464.449219 519.527344 462.394531 520.507812 460.3125 C 521.488281 458.230469 522.414062 456.125 523.28125 453.992188 C 524.148438 451.863281 524.960938 449.710938 525.714844 447.535156 C 526.46875 445.363281 527.164062 443.171875 527.800781 440.960938 C 528.4375 438.75 529.019531 436.523438 529.535156 434.28125 C 530.054688 432.039062 530.515625 429.785156 530.914062 427.519531 C 531.3125 425.253906 531.652344 422.976562 531.933594 420.695312 C 532.210938 418.410156 532.429688 416.121094 532.585938 413.824219 C 532.742188 411.527344 532.839844 409.230469 532.875 406.929688 C 532.910156 404.628906 532.882812 402.328125 532.796875 400.03125 C 532.707031 397.730469 532.558594 395.433594 532.351562 393.144531 C 532.140625 390.851562 531.871094 388.566406 531.542969 386.292969 C 531.210938 384.015625 530.820312 381.746094 530.367188 379.492188 C 529.917969 377.234375 529.40625 374.992188 528.839844 372.761719 L 556.402344 345.199219 C 560.128906 354.738281 562.9375 364.542969 564.828125 374.609375 C 566.722656 384.675781 567.664062 394.828125 567.65625 405.070312 Z M 411.132812 411.160156 L 371.695312 371.722656 C 370.5625 370.589844 369.378906 369.515625 368.140625 368.5 C 366.902344 367.484375 365.617188 366.53125 364.285156 365.640625 C 362.949219 364.75 361.578125 363.925781 360.164062 363.171875 C 358.753906 362.417969 357.304688 361.734375 355.824219 361.121094 C 354.34375 360.507812 352.839844 359.96875 351.304688 359.503906 C 349.773438 359.039062 348.21875 358.648438 346.648438 358.335938 C 345.078125 358.023438 343.496094 357.789062 341.902344 357.632812 C 340.304688 357.476562 338.707031 357.398438 337.105469 357.398438 C 335.503906 357.398438 333.90625 357.476562 332.3125 357.632812 C 330.714844 357.789062 329.132812 358.023438 327.5625 358.335938 C 325.992188 358.648438 324.4375 359.039062 322.90625 359.503906 C 321.371094 359.96875 319.867188 360.507812 318.386719 361.121094 C 316.90625 361.734375 315.457031 362.417969 314.046875 363.171875 C 312.632812 363.925781 311.261719 364.75 309.929688 365.640625 C 308.597656 366.53125 307.3125 367.484375 306.070312 368.5 C 304.832031 369.515625 303.648438 370.589844 302.515625 371.722656 L 376.515625 445.746094 L 403.527344 472.757812 C 404.023438 473.253906 404.566406 473.699219 405.152344 474.089844 C 405.738281 474.480469 406.355469 474.8125 407.007812 475.082031 C 407.65625 475.351562 408.328125 475.554688 409.019531 475.691406 C 409.710938 475.828125 410.40625 475.894531 411.109375 475.894531 C 411.816406 475.894531 412.511719 475.828125 413.203125 475.691406 C 413.894531 475.554688 414.5625 475.351562 415.214844 475.082031 C 415.863281 474.8125 416.484375 474.480469 417.070312 474.089844 C 417.65625 473.699219 418.195312 473.253906 418.695312 472.757812 L 445.707031 445.746094 L 606.714844 284.734375 C 605.582031 283.601562 604.398438 282.527344 603.15625 281.511719 C 601.917969 280.496094 600.632812 279.542969 599.300781 278.652344 C 597.96875 277.761719 596.597656 276.941406 595.183594 276.183594 C 593.769531 275.429688 592.324219 274.746094 590.84375 274.132812 C 589.363281 273.519531 587.855469 272.980469 586.324219 272.515625 C 584.789062 272.050781 583.238281 271.660156 581.664062 271.347656 C 580.09375 271.035156 578.511719 270.800781 576.917969 270.644531 C 575.320312 270.488281 573.722656 270.410156 572.121094 270.410156 C 570.519531 270.410156 568.921875 270.488281 567.324219 270.644531 C 565.730469 270.800781 564.148438 271.035156 562.578125 271.347656 C 561.003906 271.660156 559.453125 272.050781 557.917969 272.515625 C 556.386719 272.980469 554.878906 273.519531 553.398438 274.132812 C 551.917969 274.746094 550.472656 275.429688 549.058594 276.183594 C 547.644531 276.941406 546.273438 277.761719 544.941406 278.652344 C 543.609375 279.542969 542.324219 280.496094 541.085938 281.511719 C 539.847656 282.527344 538.660156 283.601562 537.527344 284.734375 Z M 411.132812 411.160156 " fill-opacity="1" fill-rule="nonzero"/></g></svg>