<svg xmlns="http://www.w3.org/2000/svg" xmlns:xlink="http://www.w3.org/1999/xlink" width="1080" zoomAndPan="magnify" viewBox="0 0 810 809.999993" height="1080" preserveAspectRatio="xMidYMid meet" version="1.0"><path fill="#ff3131" d="M 562.972656 363.3125 C 583.246094 450.5625 528.945312 537.746094 441.695312 558 C 354.445312 578.253906 267.285156 523.960938 247.019531 436.722656 C 226.753906 349.484375 281.035156 262.3125 368.285156 242.042969 C 412.53125 231.765625 463.617188 238.476562 499 267.414062 L 474.152344 292.363281 C 470.566406 290.050781 466.875 287.925781 463.074219 285.988281 C 459.277344 284.046875 455.390625 282.300781 451.417969 280.753906 C 447.441406 279.203125 443.402344 277.855469 439.292969 276.710938 C 435.183594 275.566406 431.027344 274.628906 426.824219 273.902344 C 422.621094 273.171875 418.390625 272.65625 414.136719 272.355469 C 409.882812 272.050781 405.625 271.960938 401.359375 272.082031 C 397.097656 272.207031 392.847656 272.542969 388.621094 273.09375 C 384.390625 273.644531 380.199219 274.402344 376.042969 275.371094 C 307.1875 291.363281 264.351562 360.132812 280.34375 428.976562 C 296.335938 497.816406 365.105469 540.667969 433.96875 524.667969 C 502.828125 508.667969 545.640625 439.925781 529.667969 371.050781 C 527.183594 360.351562 519.90625 342.277344 515.074219 332.972656 L 538.859375 308.363281 C 544.554688 316.6875 549.429688 325.472656 553.484375 334.710938 C 557.539062 343.949219 560.699219 353.480469 562.972656 363.3125 Z M 440.382812 395.203125 L 571.027344 263.101562 C 570.105469 262.179688 569.136719 261.304688 568.128906 260.476562 C 567.117188 259.648438 566.070312 258.875 564.984375 258.148438 C 563.898438 257.425781 562.78125 256.753906 561.628906 256.140625 C 560.476562 255.527344 559.296875 254.972656 558.089844 254.472656 C 556.882812 253.976562 555.65625 253.539062 554.40625 253.164062 C 553.15625 252.785156 551.890625 252.472656 550.609375 252.222656 C 549.332031 251.96875 548.039062 251.78125 546.742188 251.65625 C 545.441406 251.53125 544.140625 251.472656 542.835938 251.476562 C 541.527344 251.480469 540.226562 251.546875 538.929688 251.679688 C 537.628906 251.8125 536.339844 252.007812 535.0625 252.269531 C 533.78125 252.527344 532.519531 252.847656 531.273438 253.234375 C 530.023438 253.617188 528.796875 254.0625 527.59375 254.566406 C 526.390625 255.070312 525.214844 255.632812 524.066406 256.253906 C 522.917969 256.875 521.804688 257.550781 520.722656 258.28125 C 519.640625 259.015625 518.597656 259.796875 517.59375 260.628906 C 516.589844 261.464844 515.628906 262.34375 514.710938 263.273438 L 412.152344 367.113281 L 379.15625 334.117188 C 378.230469 333.191406 377.261719 332.316406 376.253906 331.488281 C 375.242188 330.660156 374.191406 329.878906 373.105469 329.15625 C 372.015625 328.429688 370.898438 327.757812 369.742188 327.140625 C 368.589844 326.527344 367.410156 325.96875 366.203125 325.46875 C 364.996094 324.96875 363.765625 324.527344 362.515625 324.148438 C 361.261719 323.769531 359.996094 323.453125 358.714844 323.199219 C 357.429688 322.941406 356.140625 322.75 354.839844 322.625 C 353.539062 322.496094 352.234375 322.429688 350.925781 322.429688 C 349.617188 322.429688 348.3125 322.496094 347.011719 322.625 C 345.710938 322.75 344.421875 322.941406 343.136719 323.199219 C 341.855469 323.453125 340.589844 323.769531 339.339844 324.148438 C 338.085938 324.527344 336.859375 324.96875 335.648438 325.46875 C 334.441406 325.96875 333.261719 326.527344 332.109375 327.140625 C 330.953125 327.757812 329.835938 328.429688 328.746094 329.15625 C 327.660156 329.878906 326.609375 330.660156 325.601562 331.488281 C 324.589844 332.316406 323.621094 333.191406 322.695312 334.117188 L 383.949219 395.367188 L 322.695312 457.605469 C 323.617188 458.527344 324.585938 459.40625 325.59375 460.230469 C 326.605469 461.058594 327.652344 461.835938 328.738281 462.5625 C 329.824219 463.285156 330.941406 463.953125 332.09375 464.570312 C 333.246094 465.183594 334.425781 465.738281 335.632812 466.238281 C 336.839844 466.734375 338.066406 467.171875 339.316406 467.550781 C 340.566406 467.925781 341.832031 468.238281 343.113281 468.492188 C 344.394531 468.746094 345.683594 468.933594 346.984375 469.058594 C 348.28125 469.183594 349.585938 469.242188 350.890625 469.238281 C 352.195312 469.234375 353.496094 469.167969 354.796875 469.035156 C 356.09375 468.902344 357.382812 468.707031 358.664062 468.449219 C 359.941406 468.191406 361.207031 467.867188 362.453125 467.484375 C 363.703125 467.101562 364.925781 466.65625 366.132812 466.152344 C 367.335938 465.648438 368.511719 465.085938 369.660156 464.464844 C 370.808594 463.84375 371.921875 463.167969 373.003906 462.4375 C 374.085938 461.707031 375.128906 460.925781 376.132812 460.089844 C 377.140625 459.257812 378.101562 458.375 379.019531 457.449219 L 412.335938 423.757812 L 445.917969 457.335938 C 446.839844 458.261719 447.804688 459.136719 448.816406 459.964844 C 449.824219 460.792969 450.875 461.570312 451.960938 462.296875 C 453.046875 463.019531 454.164062 463.691406 455.316406 464.304688 C 456.46875 464.921875 457.648438 465.476562 458.855469 465.976562 C 460.0625 466.472656 461.292969 466.914062 462.542969 467.289062 C 463.792969 467.667969 465.058594 467.984375 466.339844 468.234375 C 467.621094 468.488281 468.914062 468.675781 470.214844 468.804688 C 471.511719 468.929688 472.816406 468.988281 474.121094 468.988281 C 475.429688 468.984375 476.730469 468.917969 478.03125 468.785156 C 479.332031 468.65625 480.621094 468.460938 481.902344 468.199219 C 483.179688 467.941406 484.445312 467.621094 485.695312 467.238281 C 486.941406 466.855469 488.171875 466.414062 489.375 465.910156 C 490.578125 465.40625 491.757812 464.84375 492.90625 464.222656 C 494.054688 463.601562 495.171875 462.925781 496.253906 462.199219 C 497.339844 461.46875 498.382812 460.6875 499.390625 459.851562 C 500.394531 459.019531 501.359375 458.140625 502.277344 457.210938 Z M 440.382812 395.203125 " fill-opacity="1" fill-rule="nonzero"/></svg>