<svg width="30" height="24" viewBox="0 0 30 24" fill="none" xmlns="http://www.w3.org/2000/svg">
<g clip-path="url(#clip0_2177_754)">
<path d="M19.6445 12.1228L29.6358 17.2378V6.79181L19.6445 12.1228Z" fill="#9092B0"/>
<path d="M0 6.79181V17.2378L9.99122 12.1228L0 6.79181Z" fill="#9092B0"/>
<path d="M27.7853 3.75H1.85336C0.929067 3.75 0.195562 4.308 0.0566406 5.0265L14.8193 12.903L29.5821 5.0265C29.4431 4.308 28.7096 3.75 27.7853 3.75Z" fill="#9092B0"/>
<path d="M17.948 13.029L15.327 14.427C15.1714 14.5095 14.9954 14.55 14.8176 14.55C14.6398 14.55 14.4638 14.5095 14.3082 14.427L11.6872 13.0275L0.0585938 18.984C0.20122 19.6965 0.93102 20.25 1.85161 20.25H27.7836C28.7042 20.25 29.434 19.6965 29.5766 18.984L17.948 13.029Z" fill="#9092B0"/>
</g>
<defs>
<clipPath id="clip0_2177_754">
<rect width="29.6366" height="24" fill="white"/>
</clipPath>
</defs>
</svg>
