<svg width="25" height="21" viewBox="0 0 25 21" fill="none" xmlns="http://www.w3.org/2000/svg">
<path d="M20.7995 0.806591L1.75589 8.33223C0.953582 8.64926 0.449734 9.29535 0.44086 10.0182C0.432058 10.7411 0.920036 11.3952 1.71439 11.725L7.98805 14.3301L13.6346 9.15304C13.8944 8.91481 14.3436 8.89224 14.6378 9.10267C14.9319 9.31308 14.9598 9.67683 14.7 9.91508L9.05345 15.0921L13.0206 19.8119C13.5229 20.4095 14.3846 20.7209 15.2694 20.6245C16.1559 20.5279 16.884 20.0421 17.173 19.3595L24.0428 3.12632C24.3555 2.38723 24.1006 1.60682 23.3775 1.0896C22.6544 0.57239 21.6665 0.463891 20.7995 0.806591Z" fill="white"/>
</svg>
