<svg xmlns="http://www.w3.org/2000/svg" xmlns:xlink="http://www.w3.org/1999/xlink" width="559" zoomAndPan="magnify" viewBox="0 0 419.25 297.75" height="396" preserveAspectRatio="xMidYMid meet" version="1.0"><defs><g/></defs><g fill="#ff0000" fill-opacity="1"><g transform="translate(115.788248, 144.379966)"><g><path d="M 10.1875 -30.34375 L 0.21875 -30.34375 L 0.21875 -23.40625 L 3.46875 -23.40625 L 3.46875 0 L 10.40625 0 L 10.40625 -18.5 C 13.515625 -14.265625 16.640625 -10.015625 19.8125 -5.765625 C 22.921875 -10.015625 26.09375 -14.265625 29.25 -18.5 L 29.25 0 L 36.1875 0 L 36.1875 -30.34375 L 29.46875 -30.34375 C 26.21875 -26 23.015625 -21.625 19.8125 -17.296875 Z M 10.1875 -30.34375 "/></g></g></g><g fill="#ff0000" fill-opacity="1"><g transform="translate(158.782672, 144.379966)"><g><path d="M 31.640625 0 L 31.640625 -6.9375 L 9.109375 -6.9375 L 9.109375 -23.40625 L 25.796875 -23.40625 L 25.796875 -18.203125 L 11.265625 -18.203125 L 11.265625 -11.265625 L 28.390625 -11.265625 L 32.71875 -15.609375 L 32.71875 -26 L 28.390625 -30.34375 L 6.5 -30.34375 L 2.171875 -26 L 2.171875 -4.328125 L 6.5 0 Z M 31.640625 0 "/></g></g></g><g fill="#ff0000" fill-opacity="1"><g transform="translate(198.30984, 144.379966)"><g><path d="M 29.46875 0 L 33.8125 -4.328125 L 33.8125 -26 L 29.46875 -30.34375 L 6.5 -30.34375 L 2.171875 -26 L 2.171875 -4.328125 L 6.5 0 Z M 26.875 -6.9375 L 9.109375 -6.9375 L 9.109375 -23.40625 L 26.875 -23.40625 Z M 26.875 -6.9375 "/></g></g></g><g fill="#ff0000" fill-opacity="1"><g transform="translate(238.920528, 144.379966)"><g><path d="M 19.8125 -13 C 23.015625 -8.671875 26.21875 -4.328125 29.46875 0 L 36.1875 0 L 36.1875 -30.34375 L 29.25 -30.34375 L 29.25 -11.796875 C 26.09375 -16.03125 22.921875 -20.28125 19.8125 -24.53125 C 16.640625 -20.28125 13.515625 -16.03125 10.40625 -11.796875 L 10.40625 -30.34375 L 0.21875 -30.34375 L 0.21875 -23.40625 L 3.46875 -23.40625 L 3.46875 0 L 10.1875 0 Z M 19.8125 -13 "/></g></g></g><g fill="#ff0000" fill-opacity="1"><g transform="translate(281.914952, 144.379966)"><g><path d="M 29.90625 0 L 29.90625 -6.9375 L 10.40625 -6.9375 L 10.40625 -30.34375 L 0.21875 -30.34375 L 0.21875 -23.40625 L 3.46875 -23.40625 L 3.46875 0 Z M 29.90625 0 "/></g></g></g><g fill="#00ffff" fill-opacity="1"><g transform="translate(120.0904, 143.85172)"><g><path d="M 10.1875 -30.34375 L 0.21875 -30.34375 L 0.21875 -23.40625 L 3.46875 -23.40625 L 3.46875 0 L 10.40625 0 L 10.40625 -18.5 C 13.515625 -14.265625 16.640625 -10.015625 19.8125 -5.765625 C 22.921875 -10.015625 26.09375 -14.265625 29.25 -18.5 L 29.25 0 L 36.1875 0 L 36.1875 -30.34375 L 29.46875 -30.34375 C 26.21875 -26 23.015625 -21.625 19.8125 -17.296875 Z M 10.1875 -30.34375 "/></g></g></g><g fill="#00ffff" fill-opacity="1"><g transform="translate(163.084824, 143.85172)"><g><path d="M 31.640625 0 L 31.640625 -6.9375 L 9.109375 -6.9375 L 9.109375 -23.40625 L 25.796875 -23.40625 L 25.796875 -18.203125 L 11.265625 -18.203125 L 11.265625 -11.265625 L 28.390625 -11.265625 L 32.71875 -15.609375 L 32.71875 -26 L 28.390625 -30.34375 L 6.5 -30.34375 L 2.171875 -26 L 2.171875 -4.328125 L 6.5 0 Z M 31.640625 0 "/></g></g></g><g fill="#00ffff" fill-opacity="1"><g transform="translate(202.611992, 143.85172)"><g><path d="M 29.46875 0 L 33.8125 -4.328125 L 33.8125 -26 L 29.46875 -30.34375 L 6.5 -30.34375 L 2.171875 -26 L 2.171875 -4.328125 L 6.5 0 Z M 26.875 -6.9375 L 9.109375 -6.9375 L 9.109375 -23.40625 L 26.875 -23.40625 Z M 26.875 -6.9375 "/></g></g></g><g fill="#00ffff" fill-opacity="1"><g transform="translate(243.22268, 143.85172)"><g><path d="M 19.8125 -13 C 23.015625 -8.671875 26.21875 -4.328125 29.46875 0 L 36.1875 0 L 36.1875 -30.34375 L 29.25 -30.34375 L 29.25 -11.796875 C 26.09375 -16.03125 22.921875 -20.28125 19.8125 -24.53125 C 16.640625 -20.28125 13.515625 -16.03125 10.40625 -11.796875 L 10.40625 -30.34375 L 0.21875 -30.34375 L 0.21875 -23.40625 L 3.46875 -23.40625 L 3.46875 0 L 10.1875 0 Z M 19.8125 -13 "/></g></g></g><g fill="#00ffff" fill-opacity="1"><g transform="translate(286.217104, 143.85172)"><g><path d="M 29.90625 0 L 29.90625 -6.9375 L 10.40625 -6.9375 L 10.40625 -30.34375 L 0.21875 -30.34375 L 0.21875 -23.40625 L 3.46875 -23.40625 L 3.46875 0 Z M 29.90625 0 "/></g></g></g><g fill="#ffffff" fill-opacity="1"><g transform="translate(117.939324, 144.115843)"><g><path d="M 10.1875 -30.34375 L 0.21875 -30.34375 L 0.21875 -23.40625 L 3.46875 -23.40625 L 3.46875 0 L 10.40625 0 L 10.40625 -18.5 C 13.515625 -14.265625 16.640625 -10.015625 19.8125 -5.765625 C 22.921875 -10.015625 26.09375 -14.265625 29.25 -18.5 L 29.25 0 L 36.1875 0 L 36.1875 -30.34375 L 29.46875 -30.34375 C 26.21875 -26 23.015625 -21.625 19.8125 -17.296875 Z M 10.1875 -30.34375 "/></g></g></g><g fill="#ffffff" fill-opacity="1"><g transform="translate(160.933748, 144.115843)"><g><path d="M 31.640625 0 L 31.640625 -6.9375 L 9.109375 -6.9375 L 9.109375 -23.40625 L 25.796875 -23.40625 L 25.796875 -18.203125 L 11.265625 -18.203125 L 11.265625 -11.265625 L 28.390625 -11.265625 L 32.71875 -15.609375 L 32.71875 -26 L 28.390625 -30.34375 L 6.5 -30.34375 L 2.171875 -26 L 2.171875 -4.328125 L 6.5 0 Z M 31.640625 0 "/></g></g></g><g fill="#ffffff" fill-opacity="1"><g transform="translate(200.460916, 144.115843)"><g><path d="M 29.46875 0 L 33.8125 -4.328125 L 33.8125 -26 L 29.46875 -30.34375 L 6.5 -30.34375 L 2.171875 -26 L 2.171875 -4.328125 L 6.5 0 Z M 26.875 -6.9375 L 9.109375 -6.9375 L 9.109375 -23.40625 L 26.875 -23.40625 Z M 26.875 -6.9375 "/></g></g></g><g fill="#ffffff" fill-opacity="1"><g transform="translate(241.071604, 144.115843)"><g><path d="M 19.8125 -13 C 23.015625 -8.671875 26.21875 -4.328125 29.46875 0 L 36.1875 0 L 36.1875 -30.34375 L 29.25 -30.34375 L 29.25 -11.796875 C 26.09375 -16.03125 22.921875 -20.28125 19.8125 -24.53125 C 16.640625 -20.28125 13.515625 -16.03125 10.40625 -11.796875 L 10.40625 -30.34375 L 0.21875 -30.34375 L 0.21875 -23.40625 L 3.46875 -23.40625 L 3.46875 0 L 10.1875 0 Z M 19.8125 -13 "/></g></g></g><g fill="#ffffff" fill-opacity="1"><g transform="translate(284.066028, 144.115843)"><g><path d="M 29.90625 0 L 29.90625 -6.9375 L 10.40625 -6.9375 L 10.40625 -30.34375 L 0.21875 -30.34375 L 0.21875 -23.40625 L 3.46875 -23.40625 L 3.46875 0 Z M 29.90625 0 "/></g></g></g><g fill="#ff0000" fill-opacity="1"><g transform="translate(117.891437, 183.296121)"><g><path d="M 15 0 L 22.796875 0 L 36.96875 -30.34375 L 29.390625 -30.34375 L 23.3125 -17.375 L 18.890625 -6.5 L 14.484375 -17.375 L 8.453125 -30.34375 L 0.4375 -30.34375 L 0.4375 -23.40625 L 4.078125 -23.40625 Z M 15 0 "/></g></g></g><g fill="#ff0000" fill-opacity="1"><g transform="translate(159.932365, 183.296121)"><g><path d="M 31.640625 0 L 31.640625 -6.9375 L 9.109375 -6.9375 L 9.109375 -23.40625 L 25.796875 -23.40625 L 25.796875 -18.203125 L 11.265625 -18.203125 L 11.265625 -11.265625 L 28.390625 -11.265625 L 32.71875 -15.609375 L 32.71875 -26 L 28.390625 -30.34375 L 6.5 -30.34375 L 2.171875 -26 L 2.171875 -4.328125 L 6.5 0 Z M 31.640625 0 "/></g></g></g><g fill="#ff0000" fill-opacity="1"><g transform="translate(199.459533, 183.296121)"><g><path d="M 26.4375 -7.375 L 30.78125 -11.703125 L 30.78125 -26 L 26.4375 -30.34375 L 0.21875 -30.34375 L 0.21875 -23.40625 L 23.84375 -23.40625 L 23.84375 -14.296875 L 10.40625 -14.296875 L 10.40625 -21.234375 L 3.46875 -21.234375 L 3.46875 0 L 10.40625 0 L 10.40625 -7.375 L 17.640625 -7.375 C 19.8125 -4.890625 21.9375 -2.421875 24.140625 0 L 32.9375 0 C 30.734375 -2.421875 28.609375 -4.890625 26.4375 -7.375 Z M 26.4375 -7.375 "/></g></g></g><g fill="#ff0000" fill-opacity="1"><g transform="translate(237.469781, 183.296121)"><g><path d="M 26.65625 0 L 30.984375 -4.328125 L 30.984375 -14.296875 L 26.65625 -18.640625 L 9.109375 -18.640625 L 9.109375 -23.40625 L 30.984375 -23.40625 L 30.984375 -30.34375 L 6.5 -30.34375 L 2.171875 -26 L 2.171875 -16.03125 L 6.5 -11.703125 L 24.0625 -11.703125 L 24.0625 -6.9375 L 2.171875 -6.9375 L 2.171875 0 Z M 26.65625 0 "/></g></g></g><g fill="#ff0000" fill-opacity="1"><g transform="translate(275.263321, 183.296121)"><g><path d="M 31.640625 0 L 31.640625 -6.9375 L 9.109375 -6.9375 L 9.109375 -23.40625 L 25.796875 -23.40625 L 25.796875 -18.203125 L 11.265625 -18.203125 L 11.265625 -11.265625 L 28.390625 -11.265625 L 32.71875 -15.609375 L 32.71875 -26 L 28.390625 -30.34375 L 6.5 -30.34375 L 2.171875 -26 L 2.171875 -4.328125 L 6.5 0 Z M 31.640625 0 "/></g></g></g><g fill="#00ffff" fill-opacity="1"><g transform="translate(122.193589, 182.767875)"><g><path d="M 15 0 L 22.796875 0 L 36.96875 -30.34375 L 29.390625 -30.34375 L 23.3125 -17.375 L 18.890625 -6.5 L 14.484375 -17.375 L 8.453125 -30.34375 L 0.4375 -30.34375 L 0.4375 -23.40625 L 4.078125 -23.40625 Z M 15 0 "/></g></g></g><g fill="#00ffff" fill-opacity="1"><g transform="translate(164.234517, 182.767875)"><g><path d="M 31.640625 0 L 31.640625 -6.9375 L 9.109375 -6.9375 L 9.109375 -23.40625 L 25.796875 -23.40625 L 25.796875 -18.203125 L 11.265625 -18.203125 L 11.265625 -11.265625 L 28.390625 -11.265625 L 32.71875 -15.609375 L 32.71875 -26 L 28.390625 -30.34375 L 6.5 -30.34375 L 2.171875 -26 L 2.171875 -4.328125 L 6.5 0 Z M 31.640625 0 "/></g></g></g><g fill="#00ffff" fill-opacity="1"><g transform="translate(203.761685, 182.767875)"><g><path d="M 26.4375 -7.375 L 30.78125 -11.703125 L 30.78125 -26 L 26.4375 -30.34375 L 0.21875 -30.34375 L 0.21875 -23.40625 L 23.84375 -23.40625 L 23.84375 -14.296875 L 10.40625 -14.296875 L 10.40625 -21.234375 L 3.46875 -21.234375 L 3.46875 0 L 10.40625 0 L 10.40625 -7.375 L 17.640625 -7.375 C 19.8125 -4.890625 21.9375 -2.421875 24.140625 0 L 32.9375 0 C 30.734375 -2.421875 28.609375 -4.890625 26.4375 -7.375 Z M 26.4375 -7.375 "/></g></g></g><g fill="#00ffff" fill-opacity="1"><g transform="translate(241.771933, 182.767875)"><g><path d="M 26.65625 0 L 30.984375 -4.328125 L 30.984375 -14.296875 L 26.65625 -18.640625 L 9.109375 -18.640625 L 9.109375 -23.40625 L 30.984375 -23.40625 L 30.984375 -30.34375 L 6.5 -30.34375 L 2.171875 -26 L 2.171875 -16.03125 L 6.5 -11.703125 L 24.0625 -11.703125 L 24.0625 -6.9375 L 2.171875 -6.9375 L 2.171875 0 Z M 26.65625 0 "/></g></g></g><g fill="#00ffff" fill-opacity="1"><g transform="translate(279.565473, 182.767875)"><g><path d="M 31.640625 0 L 31.640625 -6.9375 L 9.109375 -6.9375 L 9.109375 -23.40625 L 25.796875 -23.40625 L 25.796875 -18.203125 L 11.265625 -18.203125 L 11.265625 -11.265625 L 28.390625 -11.265625 L 32.71875 -15.609375 L 32.71875 -26 L 28.390625 -30.34375 L 6.5 -30.34375 L 2.171875 -26 L 2.171875 -4.328125 L 6.5 0 Z M 31.640625 0 "/></g></g></g><g fill="#ffffff" fill-opacity="1"><g transform="translate(120.042513, 183.031998)"><g><path d="M 15 0 L 22.796875 0 L 36.96875 -30.34375 L 29.390625 -30.34375 L 23.3125 -17.375 L 18.890625 -6.5 L 14.484375 -17.375 L 8.453125 -30.34375 L 0.4375 -30.34375 L 0.4375 -23.40625 L 4.078125 -23.40625 Z M 15 0 "/></g></g></g><g fill="#ffffff" fill-opacity="1"><g transform="translate(162.083441, 183.031998)"><g><path d="M 31.640625 0 L 31.640625 -6.9375 L 9.109375 -6.9375 L 9.109375 -23.40625 L 25.796875 -23.40625 L 25.796875 -18.203125 L 11.265625 -18.203125 L 11.265625 -11.265625 L 28.390625 -11.265625 L 32.71875 -15.609375 L 32.71875 -26 L 28.390625 -30.34375 L 6.5 -30.34375 L 2.171875 -26 L 2.171875 -4.328125 L 6.5 0 Z M 31.640625 0 "/></g></g></g><g fill="#ffffff" fill-opacity="1"><g transform="translate(201.610609, 183.031998)"><g><path d="M 26.4375 -7.375 L 30.78125 -11.703125 L 30.78125 -26 L 26.4375 -30.34375 L 0.21875 -30.34375 L 0.21875 -23.40625 L 23.84375 -23.40625 L 23.84375 -14.296875 L 10.40625 -14.296875 L 10.40625 -21.234375 L 3.46875 -21.234375 L 3.46875 0 L 10.40625 0 L 10.40625 -7.375 L 17.640625 -7.375 C 19.8125 -4.890625 21.9375 -2.421875 24.140625 0 L 32.9375 0 C 30.734375 -2.421875 28.609375 -4.890625 26.4375 -7.375 Z M 26.4375 -7.375 "/></g></g></g><g fill="#ffffff" fill-opacity="1"><g transform="translate(239.620857, 183.031998)"><g><path d="M 26.65625 0 L 30.984375 -4.328125 L 30.984375 -14.296875 L 26.65625 -18.640625 L 9.109375 -18.640625 L 9.109375 -23.40625 L 30.984375 -23.40625 L 30.984375 -30.34375 L 6.5 -30.34375 L 2.171875 -26 L 2.171875 -16.03125 L 6.5 -11.703125 L 24.0625 -11.703125 L 24.0625 -6.9375 L 2.171875 -6.9375 L 2.171875 0 Z M 26.65625 0 "/></g></g></g><g fill="#ffffff" fill-opacity="1"><g transform="translate(277.414397, 183.031998)"><g><path d="M 31.640625 0 L 31.640625 -6.9375 L 9.109375 -6.9375 L 9.109375 -23.40625 L 25.796875 -23.40625 L 25.796875 -18.203125 L 11.265625 -18.203125 L 11.265625 -11.265625 L 28.390625 -11.265625 L 32.71875 -15.609375 L 32.71875 -26 L 28.390625 -30.34375 L 6.5 -30.34375 L 2.171875 -26 L 2.171875 -4.328125 L 6.5 0 Z M 31.640625 0 "/></g></g></g></svg>